<svg xmlns="http://www.w3.org/2000/svg" width="269" height="61" viewBox="0 0 269 61" fill="none"><g clip-path="url(#clip0)"><g clip-path="url(#clip1)"><rect x="131.863" y="47.1917" width="137.031" height="13.3484" fill="#FF6A5E"></rect><g clip-path="url(#clip2)"><path fill-rule="evenodd" clip-rule="evenodd" d="M6.58443 11.1433C7.4241 12.6677 8.24139 12.8889 9.32409 12.8889C9.50089 12.8889 9.65576 12.8889 9.83255 12.8665V13.8167C9.50088 13.8829 9.16968 13.9049 8.85994 13.9049C7.44602 13.9049 6.29707 13.1757 5.39116 11.4745L3.68989 8.27068H1.21519V13.7505H0V0.492996H4.10973C6.95995 0.492996 8.19753 2.30482 8.19753 4.38207C8.19753 6.26014 7.20299 7.87323 4.97133 8.20444L6.58443 11.1433ZM6.98234 4.38206C6.98234 3.012 6.29708 1.5757 4.10974 1.5757H1.21521V7.18797H4.10974C6.29709 7.18797 6.98234 5.77405 6.98234 4.38206Z" fill="#002E5A"></path><path fill-rule="evenodd" clip-rule="evenodd" d="M21.2792 0.162003C25.1683 0.162003 28.0628 3.07846 28.0628 7.12195C28.0628 11.1874 25.1683 14.0819 21.2792 14.0819C17.3687 14.0819 14.4961 11.1874 14.4961 7.12195C14.4961 3.07847 17.3687 0.162003 21.2792 0.162003ZM21.2792 1.28902C18.0754 1.28902 15.7556 3.63078 15.7556 7.12194C15.7556 10.6131 18.0754 12.9553 21.2792 12.9553C24.4392 12.9553 26.8033 10.6131 26.8033 7.12194C26.8033 3.63078 24.4392 1.28902 21.2792 1.28902Z" fill="#002E5A"></path><path d="M34.0736 11.3424C34.9128 12.1597 36.3048 12.9555 37.9622 12.9555C39.5972 12.9555 40.923 11.9609 40.923 10.3922C40.923 8.912 40.1939 8.00609 37.6748 7.32129C35.4212 6.70227 34.1837 5.33221 34.1837 3.52084C34.1837 1.70856 35.7525 0.206009 38.1828 0.206009C39.4647 0.206009 40.7681 0.758789 41.4972 1.3111L41.2322 2.3495C40.3483 1.73094 39.1331 1.28918 38.1828 1.28918C36.4596 1.28918 35.4212 2.21702 35.4212 3.52084C35.4212 4.60309 36.0398 5.55332 38.1828 6.12756C40.7681 6.81282 42.1601 8.09425 42.1601 10.2377C42.1601 12.7563 40.017 14.0382 37.9622 14.0382C36.0398 14.0382 34.5592 13.2648 33.8301 12.5576L34.0736 11.3424Z" fill="#002E5A"></path><path fill-rule="evenodd" clip-rule="evenodd" d="M48.855 13.7505H47.5959L53.0753 0.492996H54.0698L59.5491 13.7505H58.2234L56.6327 9.90571H50.4238L48.855 13.7505ZM53.5175 2.30482L50.866 8.823H56.1909L53.5175 2.30482Z" fill="#002E5A"></path><path d="M67.1292 0.492996V12.6678H73.4263V13.7505H65.9141V0.493006L67.1292 0.492996Z" fill="#002E5A"></path><path d="M75.5039 0.492996H76.8959L81.1157 7.29853L85.336 0.492996H86.6618L81.6904 8.4251V13.7505H80.4752V8.4251L75.5039 0.492996Z" fill="#002E5A"></path><path d="M92.4737 0.492996L100.494 11.2977V0.492996H101.643V13.7505H100.803L92.783 2.94577V13.7505H91.634V0.492996L92.4737 0.492996Z" fill="#002E5A"></path><path d="M109.554 0.492996L117.574 11.2977V0.492996H118.723V13.7505H117.884L109.863 2.94577V13.7505H108.714V0.492996L109.554 0.492996Z" fill="#002E5A"></path><path d="M35.5751 23.554C37.1439 23.554 38.8676 24.0844 39.9279 24.8798V26.1612C38.8452 25.3215 37.4532 24.681 35.5751 24.681C32.3713 24.681 30.051 27.0009 30.051 30.4697C30.051 33.9389 32.3713 36.2587 35.5751 36.2587C37.4532 36.2587 38.8452 35.6182 39.9279 34.7786V36.06C38.8676 36.8553 37.1439 37.3857 35.5751 37.3857C31.8853 37.3857 28.792 34.7562 28.792 30.4696C28.792 26.1836 31.8853 23.554 35.5751 23.554V23.554Z" fill="#002E5A"></path><path fill-rule="evenodd" clip-rule="evenodd" d="M47.0215 37.098H45.762L51.2418 23.841H52.2358L57.7156 37.098H56.3899L54.7987 33.2537H48.5903L47.0215 37.098ZM51.6835 25.6528L49.032 32.171H54.3569L51.6835 25.6528Z" fill="#002E5A"></path><path fill-rule="evenodd" clip-rule="evenodd" d="M70.6635 34.4908C71.5032 36.0153 72.3209 36.2364 73.4032 36.2364C73.58 36.2364 73.7349 36.2364 73.9116 36.2145V37.1643C73.58 37.2305 73.2488 37.2529 72.9395 37.2529C71.5256 37.2529 70.3766 36.5238 69.4703 34.8225L67.769 31.6187H65.2943V37.098H64.0791V23.841H68.1888C71.0391 23.841 72.2766 25.6528 72.2766 27.7296C72.2766 29.6077 71.2821 31.2208 69.0509 31.5524L70.6635 34.4908ZM71.0614 27.7296C71.0614 26.3596 70.3766 24.9237 68.1888 24.9237H65.2943V30.5355H68.1888C70.3766 30.5355 71.0614 29.1216 71.0614 27.7296V27.7296Z" fill="#002E5A"></path><path d="M77.7351 24.9237V23.841H88.4073V24.9237H83.679V37.098H82.4634V24.9237H77.7351Z" fill="#002E5A"></path><path d="M102.195 23.841V24.9237H95.8983V29.5858H101.091V30.6685H95.8983V36.0153H102.195V37.098H94.6831V23.841L102.195 23.841Z" fill="#002E5A"></path><path fill-rule="evenodd" clip-rule="evenodd" d="M115.851 34.4908C116.69 36.0153 117.508 36.2364 118.591 36.2364C118.767 36.2364 118.922 36.2364 119.099 36.2145V37.1643C118.767 37.2305 118.436 37.2529 118.127 37.2529C116.713 37.2529 115.564 36.5238 114.658 34.8225L112.956 31.6187H110.482V37.098H109.266V23.841H113.376C116.226 23.841 117.464 25.6528 117.464 27.7296C117.464 29.6077 116.47 31.2208 114.238 31.5524L115.851 34.4908ZM116.248 27.7296C116.248 26.3596 115.564 24.9237 113.376 24.9237H110.482V30.5355H113.376C115.564 30.5355 116.248 29.1216 116.248 27.7296V27.7296Z" fill="#002E5A"></path><path d="M1.28286 47.188V60.4455H0.0681152V47.188H1.28286Z" fill="#002E5A"></path><path d="M9.23762 47.188L17.2579 57.9927V47.188H18.4073V60.4455H17.5676L9.5469 49.6408V60.4455H8.39795V47.188H9.23762Z" fill="#002E5A"></path><path d="M24.1744 58.0374C25.0136 58.8546 26.4056 59.65 28.063 59.65C29.698 59.65 31.0238 58.6559 31.0238 57.0871C31.0238 55.607 30.2947 54.7011 27.7757 54.0158C25.5221 53.3973 24.2845 52.0272 24.2845 50.2154C24.2845 48.4035 25.8533 46.901 28.2837 46.901C29.5656 46.901 30.8689 47.4538 31.5985 48.0061L31.3331 49.0445C30.4495 48.4259 29.2339 47.9837 28.2837 47.9837C26.5605 47.9837 25.5221 48.912 25.5221 50.2154C25.5221 51.2981 26.1406 52.2483 28.2837 52.8225C30.8689 53.5078 32.2609 54.7892 32.2609 56.9327C32.2609 59.4513 30.1179 60.7332 28.063 60.7332C26.1406 60.7332 24.66 59.9597 23.9309 59.2526L24.1744 58.0374Z" fill="#002E5A"></path><path d="M36.946 48.2707V47.188H47.6183V48.2707H42.8895V60.4455H41.6743V48.2707H36.946Z" fill="#002E5A"></path><path d="M55.1092 47.188V60.4455H53.894V47.188H55.1092Z" fill="#002E5A"></path><path d="M61.384 48.2707V47.188H72.0563V48.2707H67.3275V60.4455H66.1128V48.2707H61.384Z" fill="#002E5A"></path><path d="M77.8899 47.188H79.1051V54.3247C79.1051 57.9927 80.8064 59.6497 83.3697 59.6497C85.9325 59.6497 87.6557 57.9927 87.6557 54.3247V47.188H88.8709V54.3028C88.8709 58.7661 86.6617 60.7767 83.3697 60.7767C80.0772 60.7767 77.8899 58.7661 77.8899 54.3028V47.188Z" fill="#002E5A"></path><path d="M94.2639 48.2707V47.188H104.936V48.2707H100.207V60.4455H98.9922V48.2707H94.2639Z" fill="#002E5A"></path><path d="M118.723 47.188V48.2707H112.426V52.9328H117.619V54.0155H112.426V59.3628H118.723V60.4455H111.211V47.188H118.723Z" fill="#002E5A"></path></g><g clip-path="url(#clip3)"><path d="M132.017 0.376007H140.944V3.07182H135.596V5.45789H139.839V8.13177H135.596V13.6335H132.017V0.376007Z" fill="#002E5A"></path><path fill-rule="evenodd" clip-rule="evenodd" d="M143.286 7.00426C143.286 2.93839 146.578 0 150.644 0C154.687 0 157.957 2.93839 157.957 7.00426C157.957 11.0697 154.687 14.0085 150.644 14.0085C146.578 14.0085 143.286 11.0697 143.286 7.00426ZM154.157 7.00426C154.157 4.46332 152.853 2.80591 150.644 2.80591C148.412 2.80591 147.086 4.46332 147.086 7.00426C147.086 9.5452 148.412 11.2022 150.644 11.2022C152.853 11.2022 154.157 9.5452 154.157 7.00426Z" fill="#002E5A"></path><path fill-rule="evenodd" clip-rule="evenodd" d="M164.233 8.52922V13.6335H160.654V0.376007H166.686C169.912 0.376007 171.304 2.32032 171.304 4.46381C171.304 6.25325 170.288 7.66762 168.719 8.17563L172.586 13.6335H168.719L165.184 8.52923L164.233 8.52922ZM165.78 6.25325C167.15 6.25325 167.769 5.63469 167.769 4.50812C167.769 3.35917 167.15 2.74015 165.78 2.74015H164.233V6.25324L165.78 6.25325Z" fill="#002E5A"></path><path d="M131.376 30.3516C131.376 26.0651 134.69 23.436 138.513 23.436C140.325 23.436 142.07 23.9221 143.175 24.7618V27.8107C142.114 26.9048 140.701 26.2643 139.109 26.2643C136.878 26.2643 135.176 27.7001 135.176 30.3516C135.176 32.9812 136.878 34.4394 139.109 34.4394C140.701 34.4394 142.114 33.7985 143.175 32.8926V35.942C142.07 36.7816 140.325 37.2673 138.513 37.2673C134.69 37.2673 131.376 34.6382 131.376 30.3516Z" fill="#002E5A"></path><path fill-rule="evenodd" clip-rule="evenodd" d="M151.086 23.723H154.113L159.681 36.9805H156.124L154.997 34.1522H150.091L148.987 36.9805H145.518L151.086 23.723ZM154.135 31.8324L152.544 27.6564L150.953 31.8324H154.135Z" fill="#002E5A"></path><path fill-rule="evenodd" clip-rule="evenodd" d="M166.2 31.8762V36.9805H162.62V23.723H168.652C171.878 23.723 173.27 25.6678 173.27 27.8108C173.27 29.6007 172.254 31.0146 170.685 31.5226L174.552 36.9805H170.685L167.149 31.8762L166.2 31.8762ZM167.746 29.6007C169.116 29.6007 169.735 28.9817 169.735 27.8551C169.735 26.7061 169.116 26.0876 167.746 26.0876H166.2V29.6007H167.746Z" fill="#002E5A"></path><path d="M178.022 23.723H187.236V26.4188H181.601V28.6505H186.131V31.3239H181.601V34.2847H187.236V36.9805H178.022V23.723Z" fill="#002E5A"></path><path d="M190.395 30.3516C190.395 26.0651 193.842 23.436 197.753 23.436C199.587 23.436 201.465 23.9221 202.57 24.7618V27.8107C201.443 26.9267 200.161 26.2643 198.283 26.2643C195.83 26.2643 194.152 27.7668 194.152 30.5727C194.152 33.2681 195.742 34.7926 197.996 34.7926C198.725 34.7926 199.255 34.6605 199.763 34.4394V32.2521H197.797V29.7774H203.122V36.1183C202.349 36.45 200.161 37.3559 197.444 37.3559C193.621 37.3559 190.395 34.6382 190.395 30.3516L190.395 30.3516Z" fill="#002E5A"></path><path d="M207.763 23.723H211.342V36.9805H207.763V23.723Z" fill="#002E5A"></path><path d="M214.701 23.723H218.391L221.771 32.2079L225.13 23.723H228.731L223.163 36.9805H220.269L214.701 23.723Z" fill="#002E5A"></path><path d="M231.649 23.723H240.862V26.4188H235.228V28.6505H239.758V31.3239H235.228V34.2847H240.862V36.9805H231.649L231.649 23.723Z" fill="#002E5A"></path><path fill-rule="evenodd" clip-rule="evenodd" d="M248.242 31.8762V36.9805H244.663V23.723H250.695C253.921 23.723 255.313 25.6678 255.313 27.8108C255.313 29.6007 254.297 31.0146 252.728 31.5226L256.595 36.9805H252.728L249.193 31.8762L248.242 31.8762ZM249.789 29.6007C251.159 29.6007 251.778 28.9817 251.778 27.8551C251.778 26.7061 251.159 26.0876 249.789 26.0876H248.242V29.6007H249.789Z" fill="#002E5A"></path><path d="M258.717 35.5215L259.512 32.9143C260.507 33.7535 261.943 34.6818 263.688 34.6818C264.771 34.6818 265.611 34.262 265.611 33.3342C265.611 32.4721 265.036 32.1185 263.136 31.6768C260.109 30.9696 259.07 29.3569 259.07 27.3902C259.07 24.9818 260.971 23.413 263.931 23.413C265.677 23.413 267.246 24.032 268.284 24.7611L267.555 27.1472C266.561 26.5286 265.169 25.9982 263.887 25.9982C262.937 25.9982 262.341 26.3957 262.341 27.059C262.341 27.6776 262.738 28.0531 264.241 28.4067C267.555 29.1801 268.903 30.5721 268.903 32.9582C268.903 36.0738 266.384 37.2447 263.688 37.2447C261.412 37.2447 259.755 36.3831 258.717 35.5215L258.717 35.5215Z" fill="#002E5A"></path></g></g></g><defs><clipPath id="clip0"><rect width="268.903" height="60.7767" fill="white"></rect></clipPath><clipPath id="clip1"><rect width="268.903" height="60.7767" fill="white"></rect></clipPath><clipPath id="clip2"><rect width="119.099" height="60.6147" fill="white" transform="translate(0 0.162003)"></rect></clipPath><clipPath id="clip3"><rect width="137.527" height="37.3559" fill="white" transform="translate(131.376)"></rect></clipPath></defs></svg>